<svg width="40" height="40" viewBox="0 0 40 40" fill="none" xmlns="http://www.w3.org/2000/svg">
<g clip-path="url(#clip0_25_337)">
<path d="M34.5014 20.2025L33.6063 17.6593L23.952 27.314C23.0088 28.259 21.7521 28.7787 20.417 28.7787C19.0823 28.7787 17.8256 28.259 16.8824 27.314L9.79934 20.2309C8.85427 19.2877 8.33427 18.031 8.33427 16.6963C8.33427 15.3612 8.85427 14.1045 9.79934 13.1613C10.7426 12.2165 11.9992 11.6965 13.334 11.6965C14.6691 11.6965 15.9257 12.2165 16.869 13.1613L20.417 16.7079L29.9234 7.20184L29.2831 5.38523L28.9884 3.62202C28.8034 2.49202 28.0582 1.55548 26.9999 1.11697C25.9368 0.675405 24.7503 0.812117 23.8187 1.48042L19.1873 4.8335L14.504 1.47187C13.5641 0.80876 12.3743 0.676931 11.3175 1.12033C10.2678 1.56037 9.52928 2.49537 9.34435 3.61867L8.43772 9.26319L2.75963 10.2064C1.63145 10.3917 0.69492 11.1366 0.254881 12.1949C-0.185159 13.2565 -0.0484476 14.4463 0.619851 15.378L3.97141 20.0094L0.609781 24.6923C-0.0518043 25.6322 -0.185159 26.8239 0.258237 27.8788C0.699803 28.9289 1.63298 29.667 2.75627 29.8523L8.4011 30.7604L9.34435 36.4367C9.52775 37.5633 10.2678 38.4984 11.3175 38.9384C12.3758 39.3815 13.5674 39.25 14.5159 38.5783L19.1473 35.2252L23.8187 38.5783C24.3902 38.9866 25.0552 39.1966 25.7302 39.1966C26.1583 39.1966 26.5883 39.1133 26.9999 38.9417C28.0601 38.5017 28.8034 37.5652 28.9884 36.4401L29.8965 30.7955L35.5728 29.8523C36.6994 29.667 37.6329 28.9289 38.0745 27.8788C38.5179 26.8239 38.386 25.6322 37.7144 24.6807L34.5014 20.2025Z" fill="#4D8516"/>
<path d="M20.4173 25.4459C19.9906 25.4459 19.564 25.2826 19.239 24.9576L12.156 17.8746C11.5045 17.2231 11.5045 16.1697 12.156 15.5182C12.8078 14.8663 13.8609 14.8663 14.5127 15.5182L20.4173 21.4227L37.1546 4.68531C37.8064 4.03379 38.8595 4.03379 39.5113 4.68531C40.1629 5.33682 40.1629 6.39023 39.5113 7.04175L21.5955 24.9576C21.2705 25.2826 20.8439 25.4459 20.4173 25.4459Z" fill="#4D8516"/>
</g>
<defs>
<clipPath id="clip0_25_337">
<rect width="40" height="40" fill="white"/>
</clipPath>
</defs>
</svg>
