<svg width="20" height="20" viewBox="0 0 20 20" fill="none" xmlns="http://www.w3.org/2000/svg">
<path d="M9.99718 14.4999C12.4833 14.4999 14.4986 12.4852 14.4986 10.0001C14.4986 7.51489 12.4833 5.50024 9.99718 5.50024C7.51113 5.50024 5.49579 7.51489 5.49579 10.0001C5.49579 12.4852 7.51113 14.4999 9.99718 14.4999Z" fill="#7EA746"/>
<path d="M9.99724 1.00037C10.308 1.00037 10.5599 1.2522 10.5599 1.56285V3.81277C10.5599 4.12341 10.308 4.37525 9.99724 4.37525C9.68648 4.37525 9.43457 4.12341 9.43457 3.81277V1.56285C9.43457 1.2522 9.68648 1.00037 9.99724 1.00037Z" fill="#7EA746"/>
<path d="M9.99724 15.6249C10.308 15.6249 10.5599 15.8768 10.5599 16.1874V18.4373C10.5599 18.7479 10.308 18.9998 9.99724 18.9998C9.68648 18.9998 9.43457 18.7479 9.43457 18.4373V16.1874C9.43457 15.8768 9.68648 15.6249 9.99724 15.6249Z" fill="#7EA746"/>
<path d="M19 10.0001C19 10.3107 18.748 10.5626 18.4374 10.5626H16.1866C15.8758 10.5626 15.624 10.3107 15.624 10.0001C15.624 9.68946 15.8758 9.43762 16.1866 9.43762H18.4374C18.748 9.43762 19 9.68946 19 10.0001Z" fill="#7EA746"/>
<path d="M4.37049 10.0001C4.37049 10.3107 4.11857 10.5626 3.80781 10.5626H1.55712C1.24636 10.5626 0.994446 10.3107 0.994446 10.0001C0.994446 9.68946 1.24636 9.43762 1.55712 9.43762H3.80781C4.11857 9.43762 4.37049 9.68946 4.37049 10.0001Z" fill="#7EA746"/>
<path d="M16.3631 3.63642C16.5828 3.85608 16.5828 4.21222 16.3631 4.43188L14.7716 6.02282C14.5519 6.24248 14.1956 6.24248 13.9759 6.02282C13.7562 5.80316 13.7562 5.44701 13.9759 5.22735L15.5674 3.63642C15.7871 3.41676 16.1433 3.41676 16.3631 3.63642Z" fill="#7EA746"/>
<path d="M6.01852 13.9775C6.23826 14.1971 6.23826 14.5533 6.01852 14.773L4.42704 16.3639C4.2073 16.5835 3.85103 16.5835 3.63129 16.3639C3.41156 16.1442 3.41156 15.788 3.63129 15.5684L5.22278 13.9775C5.44252 13.7578 5.79879 13.7578 6.01852 13.9775Z" fill="#7EA746"/>
<path d="M16.3631 16.3639C16.1433 16.5836 15.7871 16.5836 15.5674 16.3639L13.9759 14.773C13.7562 14.5533 13.7562 14.1971 13.9759 13.9775C14.1956 13.7578 14.5519 13.7578 14.7716 13.9775L16.3631 15.5684C16.5828 15.7881 16.5828 16.1442 16.3631 16.3639Z" fill="#7EA746"/>
<path d="M6.01852 6.02282C5.79879 6.24248 5.44252 6.24248 5.22278 6.02282L3.63129 4.43189C3.41156 4.21222 3.41156 3.85608 3.6313 3.63642C3.85104 3.41676 4.2073 3.41676 4.42704 3.63642L6.01852 5.22735C6.23826 5.44702 6.23826 5.80316 6.01852 6.02282Z" fill="#7EA746"/>
</svg>
