<svg width="20" height="20" viewBox="0 0 20 20" fill="none" xmlns="http://www.w3.org/2000/svg">
<path d="M8.60028 3.24352C8.77033 3.43788 8.82838 3.73081 8.67531 3.99411C8.15209 4.89415 7.85474 5.92514 7.85474 7.02225C7.85474 10.5401 10.9149 13.3886 14.6855 13.3886C15.1768 13.3886 15.6555 13.3403 16.1165 13.2488C16.4318 13.1861 16.7185 13.3197 16.8722 13.525C17.0308 13.7369 17.0641 14.0528 16.8431 14.3071C15.4165 15.9487 13.2338 17 10.7873 17C6.48453 17 3 13.7505 3 9.74627C3 6.73257 4.9732 4.14797 7.78197 3.05258C8.10648 2.92602 8.4248 3.04296 8.60028 3.24352Z" fill="#7EA746"/>
</svg>
