<svg width="30" height="30" viewBox="0 0 30 30" fill="none" xmlns="http://www.w3.org/2000/svg">
<g clip-path="url(#clip0_31_154)">
<path d="M28.294 12.783C27.8323 12.4426 27.2506 12.0173 27.1801 11.7395C27.2097 11.2018 27.3633 10.6782 27.6288 10.2096C28.0358 9.27571 28.4557 8.30795 27.9888 7.50318C27.5219 6.69841 26.4602 6.568 25.4389 6.45972C24.9096 6.45618 24.388 6.3317 23.9142 6.09583C23.6779 5.62029 23.5539 5.09688 23.5515 4.56589C23.4368 3.54463 23.3181 2.48816 22.5081 2.01598C21.6981 1.54381 20.729 1.95729 19.7952 2.36943C19.3261 2.63483 18.8021 2.78835 18.264 2.81812C17.9822 2.74249 17.5584 2.16596 17.2205 1.70424C16.6284 0.906012 15.9618 0.000854492 14.9993 0.000854492C14.0367 0.000854492 13.3702 0.906012 12.782 1.70424C12.4403 2.16724 12.0163 2.74769 11.7385 2.81941C11.2009 2.787 10.6774 2.63367 10.2073 2.37071C9.2682 1.95723 8.30043 1.54509 7.49829 2.00944C6.69615 2.47379 6.56183 3.53809 6.44701 4.56583C6.44328 5.09499 6.31929 5.61638 6.0844 6.09057C5.61143 6.32308 5.09194 6.44524 4.56492 6.44793C3.54238 6.56268 2.48455 6.68141 2.01373 7.49138C1.5429 8.30134 1.95644 9.26923 2.36857 10.2044C2.63496 10.6745 2.78854 11.2 2.81727 11.7395C2.74164 12.0213 2.1651 12.4465 1.70338 12.783C0.905158 13.3699 0 14.0377 0 15.0003C0 15.9629 0.905158 16.6307 1.70473 17.2176C2.16645 17.558 2.74818 17.9833 2.81862 18.2611C2.78902 18.7988 2.63544 19.3224 2.36992 19.791C1.96298 20.7249 1.54302 21.6927 2.00993 22.4974C2.47685 23.3022 3.53859 23.4326 4.55985 23.5409C5.08918 23.5444 5.6107 23.6689 6.08458 23.9048C6.32082 24.3803 6.44487 24.9037 6.4472 25.4347C6.56195 26.456 6.68069 27.5125 7.49065 27.9846C8.30062 28.4568 9.2619 28.0316 10.1971 27.6246C10.6708 27.3622 11.1979 27.2105 11.7388 27.1812C12.0205 27.2568 12.4444 27.8334 12.7822 28.2951C13.3704 29.0933 14.037 29.9985 14.9995 29.9985C15.9621 29.9985 16.6286 29.0933 17.2168 28.2951C17.5585 27.8321 17.9825 27.2516 18.2603 27.1799C18.7983 27.2104 19.3221 27.3638 19.7915 27.6286C20.7254 28.0356 21.6932 28.4529 22.4966 27.9899C23.3 27.5269 23.4331 26.4612 23.5479 25.4387C23.5516 24.9095 23.6756 24.3881 23.9105 23.914C24.3843 23.6795 24.9053 23.556 25.4339 23.5527C26.4564 23.4379 27.5142 23.3192 27.9851 22.5092C28.4559 21.6993 28.0307 20.738 27.6251 19.8028C27.3596 19.3303 27.2078 18.8025 27.1817 18.2611C27.2573 17.9794 27.8338 17.5542 28.2955 17.2177C29.0938 16.6295 30.0003 15.9616 30.0003 15.0004C30.0003 14.0391 29.0935 13.3699 28.294 12.783Z" fill="#ED1F1F"/>
<path d="M14.4001 21.6C11.7532 21.6 9.6 19.3396 9.6 16.5613C9.6 15.3505 9.99507 14.5273 10.4527 13.5741C10.7066 13.0448 10.9693 12.4976 11.2119 11.7993L11.4642 11.0727C11.8364 11.1679 11.7103 11.1357 12.0823 11.2308L11.9844 11.9969C11.9044 12.6229 12.0138 13.333 12.2846 13.9449C12.3994 14.2045 12.538 14.4349 12.6919 14.6264C12.6385 13.6099 12.7383 12.6302 12.9902 11.7031C13.2544 10.7314 13.6782 9.83546 14.25 9.04005C14.9616 8.05029 15.7789 7.40386 16.1579 7.35068L17.232 7.19995L16.5092 8.04304C16.1808 8.42592 16 8.92019 16 9.43479C16 10.4295 16.5845 11.1354 17.2612 11.9527C17.6952 12.4767 18.1868 13.0706 18.5593 13.8002C18.9905 14.6448 19.2 15.5479 19.2 16.5613C19.2 19.3396 17.0468 21.6 14.4001 21.6Z" fill="white"/>
</g>
<defs>
<clipPath id="clip0_31_154">
<rect width="30" height="30" fill="white"/>
</clipPath>
</defs>
</svg>
