<svg width="16" height="16" viewBox="0 0 16 16" fill="none" xmlns="http://www.w3.org/2000/svg">
<path fill-rule="evenodd" clip-rule="evenodd" d="M0 8C0 3.58173 3.58173 0 8 0C12.4183 0 16 3.58173 16 8C16 12.4183 12.4183 16 8 16C3.58173 16 0 12.4183 0 8ZM8.4185 10.6254C8.4185 10.6254 8.5725 10.6086 8.65137 10.5254C8.72357 10.4492 8.72107 10.3054 8.72107 10.3054C8.72107 10.3054 8.71147 9.63393 9.0291 9.53477C9.34213 9.43727 9.74403 10.1841 10.1706 10.4713C10.4928 10.6885 10.7374 10.6409 10.7374 10.6409L11.8772 10.6254C11.8772 10.6254 12.4732 10.5893 12.1906 10.1292C12.1673 10.0915 12.0258 9.7888 11.3434 9.16687C10.6284 8.5159 10.7244 8.62117 11.585 7.49497C12.1093 6.80913 12.3188 6.39043 12.2532 6.21143C12.1911 6.04017 11.8054 6.08563 11.8054 6.08563L10.5224 6.09343C10.5224 6.09343 10.4273 6.08073 10.3567 6.1221C10.2879 6.16267 10.2432 6.2573 10.2432 6.2573C10.2432 6.2573 10.0404 6.78783 9.7695 7.2393C9.19813 8.19143 8.96983 8.2418 8.87633 8.18283C8.6589 8.04477 8.71313 7.62893 8.71313 7.33353C8.71313 6.41053 8.8559 6.02583 8.4356 5.92627C8.2962 5.8931 8.19353 5.87137 7.83667 5.8677C7.37883 5.8632 6.9915 5.86933 6.77197 5.97463C6.6259 6.04467 6.5132 6.20117 6.58207 6.2102C6.6668 6.22123 6.8588 6.261 6.96063 6.397C7.0921 6.57277 7.0875 6.96687 7.0875 6.96687C7.0875 6.96687 7.16307 8.05337 6.91097 8.18813C6.73817 8.28073 6.5011 8.09187 5.9915 7.22783C5.73067 6.7854 5.53367 6.29623 5.53367 6.29623C5.53367 6.29623 5.49567 6.20487 5.42763 6.1557C5.34543 6.0963 5.23063 6.07787 5.23063 6.07787L4.01153 6.08563C4.01153 6.08563 3.8283 6.09057 3.7611 6.1688C3.70143 6.23803 3.7565 6.38183 3.7565 6.38183C3.7565 6.38183 4.71103 8.57407 5.792 9.679C6.78323 10.6917 7.90847 10.6254 7.90847 10.6254H8.4185Z" fill="white"/>
</svg>
