<svg width="16" height="16" viewBox="0 0 16 16" fill="none" xmlns="http://www.w3.org/2000/svg">
<path d="M13.663 2.32644C12.1623 0.824899 10.1613 0 8.03055 0C3.64296 0 0.0687351 3.55809 0.0649165 7.92587C0.0649165 9.32478 0.431504 10.6857 1.12649 11.8907L0 16L4.22339 14.8976C5.38807 15.5286 6.69785 15.8632 8.03055 15.8632H8.03437C12.422 15.8632 15.9962 12.3051 16 7.93348C15.9962 5.81611 15.1675 3.82419 13.663 2.32644ZM8.03055 14.5213C6.83914 14.5213 5.67446 14.2019 4.65871 13.6013L4.41814 13.4569L1.91313 14.1107L2.58138 11.6778L2.42482 11.4269C1.76038 10.3778 1.41289 9.16512 1.41289 7.92207C1.41289 4.29556 4.38377 1.33809 8.03437 1.33809C9.80239 1.33809 11.4635 2.02613 12.716 3.26919C13.9647 4.51604 14.652 6.16964 14.652 7.92968C14.6482 11.5676 11.6773 14.5213 8.03055 14.5213ZM11.6621 9.58708C11.4635 9.48824 10.4859 9.00927 10.3026 8.94084C10.1193 8.87622 9.98568 8.84201 9.85585 9.03968C9.7222 9.23735 9.34033 9.68591 9.22578 9.81516C9.11122 9.94821 8.99284 9.96341 8.79427 9.86458C8.5957 9.76574 7.95418 9.55667 7.19427 8.88002C6.60239 8.35543 6.20525 7.70539 6.08687 7.50772C5.97231 7.31005 6.07542 7.20361 6.1747 7.10478C6.26253 7.01734 6.37327 6.87289 6.47255 6.75885C6.57184 6.64481 6.6062 6.56118 6.67112 6.42813C6.73604 6.29508 6.70549 6.18104 6.65585 6.08221C6.6062 5.98337 6.20907 5.00642 6.04105 4.61107C5.88067 4.22333 5.71647 4.27655 5.59427 4.27275C5.47971 4.26515 5.34606 4.26515 5.21241 4.26515C5.07876 4.26515 4.86492 4.31456 4.68162 4.51224C4.49833 4.70991 3.98663 5.18888 3.98663 6.16584C3.98663 7.14279 4.70072 8.08173 4.8 8.21478C4.89928 8.34783 6.20143 10.3474 8.19857 11.2065C8.67208 11.4117 9.04248 11.5334 9.3327 11.6246C9.81002 11.7767 10.2415 11.7539 10.5852 11.7044C10.9671 11.6474 11.7613 11.2255 11.9294 10.7617C12.0936 10.2979 12.0936 9.90259 12.0439 9.81896C11.9943 9.73533 11.8606 9.68591 11.6621 9.58708Z" fill="white"/>
</svg>
