<svg width="16" height="16" viewBox="0 0 16 16" fill="none" xmlns="http://www.w3.org/2000/svg">
<path d="M8.02606 5C8.02891 5.00001 8.03198 5.00001 8.03526 5.00002L8.07066 5.00014C8.48156 5.00175 10.5641 5.01787 11.1256 5.17903C11.4698 5.2776 11.7409 5.56808 11.8329 5.93681C11.8835 6.13939 11.9188 6.40865 11.9434 6.68557L11.9482 6.74104C11.9521 6.78732 11.9556 6.8337 11.959 6.87992L11.9628 6.93527C11.9957 7.42324 11.9995 7.87987 11.9999 7.97978L12 7.99326C12 7.99436 12 7.99616 12 7.99616V8.00373C12 8.00373 12 8.00553 12 8.00664L11.9999 8.02011C11.9995 8.1238 11.9954 8.61165 11.959 9.12001L11.9549 9.17553L11.9505 9.23111C11.9257 9.53676 11.8886 9.84027 11.8329 10.0631C11.7409 10.4318 11.4698 10.7224 11.1256 10.8209C10.5454 10.9875 8.34103 10.9991 8.03526 10.9999L8.01172 11C8.00979 11 8.00809 11 8.00663 11L7.99702 11C7.99702 11 7.99482 11 7.99336 11L7.96472 10.9999C7.8102 10.9995 7.17077 10.9963 6.50114 10.9718L6.41552 10.9685C6.40124 10.968 6.38695 10.9674 6.37266 10.9668L6.28694 10.9632L6.20143 10.9593C5.64668 10.9333 5.11775 10.8907 4.87443 10.8209C4.53022 10.7224 4.25917 10.4318 4.16718 10.0631C4.11144 9.84027 4.07429 9.53676 4.04952 9.23111L4.04515 9.17553L4.04105 9.12001C4.00594 8.63014 4.00084 8.1593 4.0001 8.03293L4.00002 8.01484C4.00001 8.01321 4 8.01171 4 8.01035V7.98955C4 7.98818 4.00001 7.98668 4.00002 7.98505L4.0001 7.96696C4.00077 7.85252 4.00502 7.45555 4.03189 7.01778L4.03537 6.96286C4.03597 6.95368 4.03658 6.94448 4.0372 6.93527L4.04105 6.87992C4.04436 6.8337 4.04794 6.78732 4.05181 6.74104L4.05659 6.68557C4.0812 6.40865 4.11651 6.13939 4.16718 5.93681C4.25917 5.56808 4.53022 5.2776 4.87443 5.17903C5.11775 5.1092 5.64668 5.06659 6.20143 5.04061L6.28694 5.03674L6.37266 5.03312C6.38695 5.03254 6.40124 5.03197 6.41552 5.03141L6.50114 5.02816C7.12803 5.00518 7.72844 5.00093 7.92932 5.00014L7.96472 5.00002C7.96801 5.00001 7.97108 5.00001 7.97392 5H8.02606ZM7.20002 6.7142V9.28569L9.27839 8.00002L7.20002 6.7142Z" fill="white"/>
<circle cx="8" cy="8" r="7.25" stroke="white" stroke-width="1.5"/>
</svg>
