<svg width="148" height="465" viewBox="0 0 148 465" fill="none" xmlns="http://www.w3.org/2000/svg">
<path d="M144.769 457.414C146.655 456.99 147.839 455.117 147.414 453.231L140.492 422.501C140.068 420.615 138.195 419.431 136.309 419.856C134.423 420.28 133.239 422.153 133.664 424.039L139.816 451.355L112.501 457.508C110.615 457.932 109.431 459.805 109.856 461.691C110.28 463.577 112.153 464.761 114.039 464.336L144.769 457.414ZM73.9445 0.548796C30.845 44.4767 -2.06956 126.873 0.658071 213.983C3.39223 301.3 41.9491 393.613 142.129 456.958L145.871 451.042C47.8827 389.083 10.325 299.045 7.65464 213.763C4.97772 128.274 37.3687 47.8227 78.9411 5.4512L73.9445 0.548796Z" fill="#F66647"/>
</svg>
